<svg width="17" height="18" viewBox="0 0 17 18" fill="none" xmlns="http://www.w3.org/2000/svg">
    <path fill-rule="evenodd" clip-rule="evenodd"
        d="M15.9371 3.19893C16.5125 2.60301 16.492 1.65755 15.8912 1.08719C15.2904 0.516823 14.3368 0.537542 13.7613 1.13346L8.25 6.84059L2.73877 1.13354C2.1633 0.537623 1.20973 0.516905 0.608913 1.08727C0.0080982 1.65763 -0.0124443 2.60309 0.56303 3.19901L6.16483 8.99985L0.562805 14.8009C-0.0126682 15.3968 0.00787374 16.3423 0.608688 16.9127C1.2095 17.483 2.16307 17.4623 2.73855 16.8664L8.25 11.1591L13.7615 16.8665C14.337 17.4624 15.2906 17.4831 15.8914 16.9127C16.4922 16.3424 16.5128 15.3969 15.9373 14.801L10.3352 8.99985L15.9371 3.19893Z"
        fill="#272727" />
</svg>
