<svg width="14" height="18" viewBox="0 0 14 18" fill="none" xmlns="http://www.w3.org/2000/svg">
<path fill-rule="evenodd" clip-rule="evenodd" d="M3.33371 14.6254L3.32883 14.7191C3.28173 15.1812 2.89122 15.5414 2.41672 15.5414C1.94221 15.5414 1.5517 15.1812 1.50461 14.7191L1.49973 14.6254L1.49973 7.20153C1.78367 7.31354 2.09304 7.37508 2.41678 7.37508C2.74048 7.37508 3.0498 7.31356 3.33371 7.20158L3.33371 14.6254ZM2.41678 2.37508C2.09304 2.37508 1.78366 2.43662 1.49973 2.54864L1.49973 1.70837C1.49973 1.20211 1.91046 0.791382 2.41672 0.791382C2.92298 0.791382 3.33371 1.20211 3.33371 1.70837V2.54859C3.0498 2.4366 2.74048 2.37508 2.41678 2.37508ZM12.5004 14.6255L12.4956 14.7192C12.4485 15.1813 12.058 15.5415 11.5835 15.5415C11.1089 15.5415 10.7184 15.1813 10.6713 14.7192L10.6665 14.6255L10.6665 7.20158C10.9504 7.31357 11.2597 7.37509 11.5834 7.37509C11.9072 7.37509 12.2165 7.31356 12.5004 7.20155L12.5004 14.6255ZM11.5834 2.37509C11.2597 2.37509 10.9504 2.43661 10.6665 2.54861V1.70849C10.6665 1.20222 11.0772 0.791494 11.5835 0.791494C12.0897 0.791494 12.5004 1.20222 12.5004 1.70849V2.54864C12.2165 2.43663 11.9072 2.37509 11.5834 2.37509ZM6.08778 3.28078L6.0829 3.37453V10.7984C6.36683 10.6864 6.6762 10.6248 6.99993 10.6248C7.32364 10.6248 7.63297 10.6863 7.91689 10.7983V3.37453L7.912 3.28078C7.86491 2.81871 7.4744 2.45852 6.99989 2.45852C6.52539 2.45852 6.13488 2.81871 6.08778 3.28078ZM7.91688 15.4513C7.63297 15.5633 7.32364 15.6248 6.99993 15.6248C6.6762 15.6248 6.36683 15.5633 6.0829 15.4513V16.2915C6.0829 16.7978 6.49363 17.2085 6.99989 17.2085C7.50615 17.2085 7.91688 16.7978 7.91688 16.2915V15.4513ZM2.41666 4.33307C2.71581 4.33307 2.95865 4.57591 2.95865 4.87507C2.95865 5.17422 2.71581 5.41706 2.41666 5.41706C2.1175 5.41706 1.87466 5.17422 1.87466 4.87507C1.87466 4.57591 2.1175 4.33307 2.41666 4.33307ZM0.541656 4.87507C0.541656 5.9106 1.38112 6.75007 2.41666 6.75007C3.45219 6.75007 4.29166 5.9106 4.29166 4.87507C4.29166 3.83953 3.45219 3.00007 2.41666 3.00007C1.38112 3.00007 0.541656 3.83953 0.541656 4.87507ZM12.1253 4.87507C12.1253 4.57591 11.8824 4.33307 11.5833 4.33307C11.2841 4.33307 11.0413 4.57591 11.0413 4.87507C11.0413 5.17422 11.2841 5.41706 11.5833 5.41706C11.8824 5.41706 12.1253 5.17422 12.1253 4.87507ZM11.5833 6.75007C10.5477 6.75007 9.70826 5.9106 9.70826 4.87507C9.70826 3.83953 10.5477 3.00007 11.5833 3.00007C12.6188 3.00007 13.4583 3.83953 13.4583 4.87507C13.4583 5.9106 12.6188 6.75007 11.5833 6.75007ZM6.99991 13.667C6.70076 13.667 6.45792 13.4241 6.45792 13.125C6.45792 12.8258 6.70076 12.583 6.99991 12.583C7.29907 12.583 7.54191 12.8258 7.54191 13.125C7.54191 13.4241 7.29907 13.667 6.99991 13.667ZM8.87491 13.125C8.87491 12.0894 8.03545 11.25 6.99991 11.25C5.96438 11.25 5.12491 12.0894 5.12491 13.125C5.12491 14.1605 5.96438 15 6.99991 15C8.03545 15 8.87491 14.1605 8.87491 13.125Z" fill="#272727"/>
</svg>
