<svg width="15" height="16" viewBox="0 0 15 16" fill="none" xmlns="http://www.w3.org/2000/svg">
<path fill-rule="evenodd" clip-rule="evenodd" d="M6.00699 10.314C3.90445 10.314 2.2 8.60952 2.2 6.50698C2.2 4.40445 3.90445 2.7 6.00699 2.7C8.10953 2.7 9.81398 4.40445 9.81398 6.50698C9.81398 8.60952 8.10953 10.314 6.00699 10.314ZM0 6.50698C0 3.18942 2.68942 0.5 6.00699 0.5C9.32455 0.5 12.014 3.18942 12.014 6.50698C12.014 7.76832 11.6252 8.93886 10.961 9.90532L14.6785 13.6228C15.1081 14.0524 15.1081 14.7489 14.6785 15.1784C14.2489 15.608 13.5524 15.608 13.1228 15.1784L9.40534 11.461C8.43888 12.1252 7.26834 12.514 6.00699 12.514C2.68942 12.514 0 9.82455 0 6.50698Z" fill="white"/>
</svg>
